<?xml version="1.0" encoding="iso-8859-1"?>
<!-- Uploaded to: SVG Repo, www.svgrepo.com, Generator: SVG Repo Mixer Tools -->
<!DOCTYPE svg PUBLIC "-//W3C//DTD SVG 1.1//EN" "http://www.w3.org/Graphics/SVG/1.1/DTD/svg11.dtd">
<svg fill="#000000" height="800px" width="800px" version="1.1" id="Capa_1" xmlns="http://www.w3.org/2000/svg" xmlns:xlink="http://www.w3.org/1999/xlink" 
	 viewBox="0 0 458.137 458.137" xml:space="preserve">
<g>
	<path d="M87.005,359.998c5.298-5.298,12.342-8.215,19.834-8.215c7.493,0,14.537,2.918,19.835,8.215
		c22.763,22.763,59.801,22.763,82.562,0c5.298-5.298,12.342-8.215,19.834-8.215c7.493,0,14.537,2.918,19.835,8.215
		c11.026,11.027,25.687,17.099,41.281,17.099c15.594,0,30.255-6.073,41.281-17.099c5.298-5.298,12.342-8.215,19.835-8.215
		c7.492,0,14.536,2.918,19.834,8.215c22.761,22.763,59.799,22.763,82.562,0c5.923-5.923,5.923-15.524,0-21.447
		c-5.922-5.923-15.525-5.923-21.447,0c-5.298,5.298-12.342,8.215-19.834,8.215c-7.493,0-14.537-2.918-19.835-8.215
		c-22.763-22.764-59.801-22.762-82.562,0c-5.298,5.298-12.342,8.215-19.834,8.215c-7.492,0-14.536-2.917-19.834-8.215
		c-11.027-11.027-25.688-17.099-41.282-17.099c-15.593,0-30.254,6.073-41.281,17.099c-10.937,10.936-28.732,10.937-39.668,0.001
		c-22.762-22.763-59.8-22.764-82.562,0c-5.298,5.298-12.342,8.215-19.835,8.215c-7.492,0-14.536-2.918-19.834-8.215
		c-5.922-5.923-15.525-5.923-21.447,0c-5.923,5.923-5.923,15.524,0,21.447C27.204,382.761,64.242,382.76,87.005,359.998z"/>
	<path d="M432.248,403.257c-5.298,5.298-12.342,8.215-19.834,8.215c-7.493,0-14.537-2.918-19.835-8.215
		c-22.763-22.764-59.801-22.761-82.562,0c-5.298,5.298-12.342,8.215-19.834,8.215c-7.492,0-14.536-2.917-19.834-8.215
		c-11.027-11.027-25.688-17.099-41.282-17.099c-15.593,0-30.254,6.073-41.281,17.099c-10.937,10.936-28.732,10.937-39.668,0
		c-22.762-22.762-59.8-22.764-82.562,0c-5.298,5.298-12.342,8.215-19.835,8.215c-7.492,0-14.536-2.918-19.834-8.215
		c-5.922-5.923-15.525-5.923-21.447,0c-5.923,5.923-5.923,15.524,0,21.447c22.762,22.764,59.8,22.762,82.562,0
		c5.298-5.298,12.342-8.215,19.834-8.215c7.493,0,14.537,2.918,19.835,8.215c22.763,22.764,59.801,22.762,82.562,0
		c5.298-5.298,12.342-8.215,19.834-8.215c7.493,0,14.537,2.918,19.835,8.215c11.026,11.027,25.687,17.099,41.281,17.099
		c15.594,0,30.255-6.073,41.281-17.099c5.298-5.298,12.342-8.215,19.835-8.215c7.492,0,14.536,2.918,19.834,8.215
		c22.761,22.762,59.799,22.764,82.562,0c5.923-5.923,5.923-15.524,0-21.447C447.773,397.334,438.17,397.334,432.248,403.257z"/>
	<circle cx="188.517" cy="59.273" r="35.885"/>
	<path d="M75.044,74.449l31.784,61.442c2.664,5.149,7.728,8.624,13.493,9.256l72.285,7.919l-18.735,2.288
		c0,0,34.835,97.765,37.086,104.081l0.018-0.031c3.386,8.45,12.078,13.968,21.567,12.918l97.561-10.806l68.263,26.409
		c10.725,4.148,22.744-1.201,26.875-11.881c4.14-10.703-1.179-22.734-11.881-26.875l-73-28.241
		c-3.011-1.166-6.362-1.652-9.783-1.274L227.97,231.018l59.458-20.205l0,0l16.07-4.883l1.066-0.118l11.814-14.406l5.894,12.445
		l6.484-0.718c5.871-0.648,11.9,0.085,17.604,2.294l27.716,10.723l-34.182-72.178c-3.048-6.435-9.177-10.861-16.244-11.729
		c-7.072-0.873-14.085,1.942-18.6,7.447l-27.466,33.492l-16.041-45.018l43.058-16.75c7.331-2.852,11.819-10.287,10.925-18.102
		l-7.041-61.625c-1.085-9.501-9.675-16.325-19.168-15.237c-9.5,1.085-16.323,9.667-15.237,19.168l5.525,48.362l-35.271,13.721
		c-5.893-3.299-13.122-4.138-19.983-1.693c-44.462,15.843-41.743,14.773-43.902,15.909l18.332,6.99l-65.46-7.172l-27.519-53.196
		c-4.4-8.506-14.878-11.797-23.334-7.423C73.993,55.5,70.652,65.96,75.044,74.449z"/>
</g>
</svg>